<?xml version="1.0" standalone="no"?>
<!DOCTYPE svg PUBLIC "-//W3C//DTD SVG 20010904//EN"
 "http://www.w3.org/TR/2001/REC-SVG-20010904/DTD/svg10.dtd">
<svg version="1.0" xmlns="http://www.w3.org/2000/svg"
 width="1984.000000pt" height="1984.000000pt" viewBox="0 0 1984.000000 1984.000000"
 preserveAspectRatio="xMidYMid meet">
<metadata>
Created by potrace 1.14, written by Peter Selinger 2001-2017
</metadata>
<g transform="translate(0.000000,1984.000000) scale(0.100000,-0.100000)"
fill="#000000" stroke="none">
<path d="M8020 14503 c0 -4 -20 -7 -44 -7 -24 1 -56 -4 -69 -11 -14 -7 -27
-11 -29 -9 -9 8 -85 -72 -233 -242 -33 -38 -73 -83 -90 -101 -16 -17 -50 -55
-75 -84 -25 -29 -54 -63 -65 -75 -57 -63 -95 -105 -159 -178 -61 -69 -103
-117 -151 -170 -6 -6 -60 -67 -120 -136 -103 -117 -134 -152 -210 -236 -16
-18 -41 -46 -54 -61 -13 -15 -53 -62 -90 -103 -37 -41 -83 -93 -102 -115 -19
-21 -41 -46 -49 -55 -8 -9 -44 -49 -80 -90 -36 -40 -75 -84 -88 -97 -13 -12
-21 -23 -19 -23 3 0 -14 -20 -37 -44 -36 -38 -69 -76 -161 -180 -11 -13 -36
-40 -55 -62 -19 -22 -69 -77 -110 -124 -41 -47 -87 -98 -102 -115 -14 -16 -36
-40 -47 -53 -39 -46 -137 -154 -168 -188 -18 -19 -33 -37 -33 -40 0 -3 -10
-15 -22 -27 -23 -22 -147 -161 -184 -205 -10 -13 -39 -45 -64 -72 -25 -26 -65
-72 -90 -100 -25 -29 -58 -68 -75 -86 -16 -17 -49 -54 -71 -80 -23 -27 -59
-68 -80 -91 -22 -23 -61 -68 -89 -99 -27 -32 -59 -67 -70 -80 -11 -12 -42 -47
-70 -79 -27 -32 -67 -75 -87 -96 -20 -22 -35 -39 -33 -39 2 0 -11 -15 -28 -33
-18 -19 -59 -64 -92 -102 -33 -38 -75 -84 -92 -103 -18 -18 -33 -36 -33 -38 0
-2 -8 -12 -17 -22 -10 -10 -45 -48 -78 -86 -33 -37 -69 -78 -80 -90 -11 -12
-49 -55 -85 -96 -36 -40 -69 -78 -75 -84 -5 -6 -28 -32 -50 -57 -34 -39 -80
-90 -194 -218 -12 -14 -35 -39 -50 -56 -43 -49 -185 -209 -196 -221 -5 -6 -37
-42 -70 -80 -33 -37 -72 -81 -87 -97 -15 -16 -41 -46 -57 -66 -17 -21 -50 -58
-74 -83 -23 -25 -62 -69 -87 -98 -52 -60 -69 -79 -130 -147 -25 -27 -67 -76
-95 -107 -27 -32 -69 -78 -92 -103 -24 -25 -43 -47 -43 -49 0 -2 -17 -22 -38
-44 -20 -21 -48 -52 -61 -67 -13 -15 -50 -57 -82 -93 -32 -36 -66 -74 -76 -86
-27 -32 -135 -153 -163 -184 -14 -15 -47 -53 -75 -85 -27 -32 -61 -70 -75 -85
-14 -15 -50 -55 -80 -90 -30 -35 -66 -75 -80 -90 -14 -15 -50 -56 -80 -90 -30
-35 -64 -73 -75 -86 -11 -12 -45 -50 -75 -84 -30 -34 -66 -74 -80 -89 -14 -16
-52 -59 -85 -96 -33 -38 -69 -79 -80 -91 -11 -12 -40 -45 -65 -73 -25 -29 -58
-67 -75 -85 -16 -18 -57 -64 -90 -102 -33 -38 -73 -83 -90 -101 -16 -17 -50
-55 -75 -84 -25 -29 -56 -65 -69 -79 -13 -14 -49 -54 -80 -89 -31 -35 -75 -86
-99 -112 -23 -26 -55 -63 -71 -83 -16 -19 -31 -33 -35 -29 -3 3 -6 1 -6 -5 0
-7 -8 -20 -17 -30 -25 -25 -143 -158 -173 -194 -14 -17 -38 -45 -55 -63 -16
-17 -55 -60 -85 -95 -30 -35 -64 -73 -75 -84 -11 -12 -49 -55 -85 -96 -35 -41
-80 -90 -98 -107 -18 -18 -31 -33 -27 -33 4 0 -6 -13 -22 -29 -15 -16 -54 -59
-87 -95 -32 -37 -72 -81 -88 -99 -64 -70 -82 -155 -50 -237 16 -40 76 -95 120
-108 52 -16 3638 -17 3647 -2 4 6 11 8 16 5 5 -4 9 -1 9 4 0 6 7 11 15 11 8 0
15 5 15 10 0 6 7 10 15 10 8 0 15 4 15 8 0 4 18 28 40 52 62 68 80 89 170 191
45 52 110 125 144 163 33 37 70 79 81 91 26 30 123 139 155 174 49 55 139 157
177 200 21 25 49 56 62 70 12 14 46 52 75 85 28 32 65 73 81 91 28 31 118 132
154 174 26 30 145 163 166 187 11 12 42 47 69 78 27 31 61 70 75 85 14 16 51
57 81 91 108 124 208 235 238 266 12 13 22 26 22 28 0 3 14 19 30 34 17 16 30
35 30 42 0 7 3 11 6 7 3 -3 33 27 67 66 85 100 114 132 173 194 28 29 48 53
45 53 -3 0 1 6 9 13 8 7 62 66 120 132 97 111 121 138 205 231 17 18 41 46 54
61 13 15 54 62 91 103 37 41 80 91 96 109 16 19 38 45 49 56 31 33 93 103 165
185 36 41 79 89 95 106 17 18 44 50 62 71 17 22 49 57 70 80 33 36 86 95 152
172 11 13 47 53 80 90 33 36 69 76 80 89 34 40 134 152 169 188 17 19 32 36
32 38 0 3 16 21 35 41 19 21 51 57 72 81 68 80 81 93 87 87 3 -4 6 0 6 8 0 8
8 22 18 30 9 9 33 35 52 59 19 23 56 65 83 92 26 28 47 52 47 54 0 3 10 15 23
28 12 12 49 53 82 91 33 38 74 83 90 101 17 18 48 54 70 79 22 26 54 61 70 79
17 18 44 48 60 67 63 73 171 194 185 210 8 9 42 47 75 84 33 38 74 84 90 101
17 18 46 52 65 75 19 23 49 56 65 74 17 18 53 58 80 89 65 74 77 87 160 181
39 43 79 89 90 101 35 41 119 136 143 163 45 49 131 146 149 167 10 12 46 52
80 90 34 38 70 78 80 90 28 33 144 163 189 213 23 26 50 56 60 69 10 13 29 34
41 47 l21 24 54 -61 c29 -34 64 -74 78 -89 14 -15 43 -48 65 -74 22 -25 56
-63 75 -84 19 -21 55 -62 80 -90 25 -29 59 -67 75 -85 17 -18 49 -55 73 -82
46 -52 141 -159 182 -204 14 -15 34 -39 45 -53 11 -13 43 -49 70 -79 28 -30
75 -83 105 -118 30 -34 60 -68 66 -74 11 -11 55 -62 159 -180 33 -38 71 -81
85 -96 14 -15 50 -56 81 -91 31 -35 78 -89 105 -119 26 -30 55 -63 64 -73 8
-10 33 -38 55 -61 22 -24 65 -72 95 -107 48 -56 120 -137 158 -177 10 -11 10
-16 0 -26 -7 -8 -33 -37 -57 -66 -25 -28 -61 -69 -80 -90 -20 -20 -45 -49 -56
-62 -17 -22 -66 -77 -175 -198 -14 -16 -47 -54 -75 -85 -27 -31 -59 -67 -70
-79 -11 -13 -49 -56 -85 -96 -36 -40 -74 -83 -85 -96 -11 -12 -47 -53 -80 -90
-33 -37 -72 -81 -87 -96 -16 -16 -28 -30 -28 -33 0 -2 -18 -23 -40 -46 -22
-24 -40 -47 -40 -52 0 -4 -4 -5 -10 -2 -5 3 -10 1 -10 -5 0 -9 -12 -25 -85
-104 -11 -12 -49 -55 -85 -96 -36 -40 -87 -98 -115 -128 -27 -30 -55 -62 -61
-71 -7 -9 -27 -32 -45 -52 -19 -19 -61 -66 -94 -104 -33 -38 -73 -83 -90 -101
-16 -17 -49 -53 -71 -80 -23 -27 -52 -61 -65 -75 -33 -36 -160 -178 -182 -203
-20 -22 -109 -123 -142 -160 -33 -37 -146 -164 -164 -184 -24 -29 -143 -163
-166 -188 -11 -12 -47 -52 -80 -90 -33 -38 -70 -79 -82 -91 -12 -13 -21 -23
-19 -23 2 0 -15 -20 -38 -44 -22 -24 -63 -69 -91 -101 -27 -31 -59 -67 -70
-79 -11 -12 -47 -53 -80 -91 -33 -37 -69 -78 -80 -91 -11 -12 -47 -52 -80 -89
-33 -37 -79 -88 -102 -114 -23 -25 -51 -57 -63 -71 -19 -23 -105 -119 -155
-174 -17 -19 -104 -118 -156 -178 -18 -20 -127 -141 -162 -181 -12 -13 -47
-52 -77 -87 -30 -35 -66 -76 -80 -91 -14 -15 -47 -53 -75 -84 -60 -69 -109
-124 -153 -171 -39 -43 -63 -87 -69 -128 -3 -17 -6 -32 -8 -34 -1 -2 4 -24 11
-49 19 -62 54 -106 106 -131 l43 -21 1805 0 c1565 0 1810 2 1839 15 34 14 90
68 186 178 28 32 68 77 90 100 22 24 40 45 40 47 1 2 13 18 28 34 15 17 49 53
75 81 26 29 63 71 82 94 19 23 51 59 70 79 19 21 62 69 95 107 33 37 74 83 92
101 18 18 30 33 28 33 -2 0 14 19 36 43 23 23 57 61 77 85 21 24 51 58 67 76
17 18 57 63 90 100 33 38 69 78 80 91 11 12 47 53 80 90 33 38 69 78 80 89 11
12 47 53 80 91 33 38 69 79 80 90 18 20 67 74 186 209 24 27 53 60 64 72 11
13 40 46 65 74 25 28 61 69 80 90 19 21 55 62 80 90 25 27 63 70 85 95 22 24
58 65 80 91 22 25 63 70 91 100 28 30 49 54 47 54 -3 0 12 17 32 37 l37 37 35
-39 c90 -102 123 -138 183 -205 36 -40 76 -86 90 -103 14 -16 36 -42 50 -57
14 -15 50 -55 80 -90 30 -34 72 -80 93 -102 20 -22 37 -42 37 -45 0 -2 12 -17
28 -32 15 -16 45 -49 67 -75 22 -25 56 -63 75 -84 19 -21 62 -69 95 -107 33
-37 71 -80 84 -94 37 -41 144 -162 164 -185 48 -56 203 -230 237 -267 14 -15
44 -50 67 -77 24 -27 62 -70 85 -95 24 -25 52 -56 63 -70 11 -13 54 -62 95
-107 41 -45 76 -86 78 -90 2 -5 32 -38 66 -74 35 -36 62 -66 60 -66 -2 0 4 -8
14 -18 22 -24 143 -159 173 -195 13 -15 43 -49 67 -74 23 -26 42 -51 42 -55 0
-5 7 -8 15 -8 8 0 15 -5 15 -10 0 -21 95 -113 135 -131 38 -18 116 -19 1834
-19 1346 0 1803 3 1833 12 42 12 104 68 119 107 18 45 21 93 8 137 -8 24 -17
44 -21 44 -4 0 -7 4 -5 9 1 5 -23 35 -53 68 -30 33 -75 84 -100 113 -25 29
-54 62 -65 74 -19 21 -133 149 -165 186 -8 9 -43 48 -77 86 -34 38 -70 78 -80
90 -63 73 -132 150 -153 174 -28 30 -146 162 -173 194 -10 12 -44 50 -75 85
-31 35 -65 73 -75 85 -10 12 -46 52 -80 90 -34 38 -70 79 -80 90 -9 12 -32 37
-50 56 -17 20 -57 64 -87 99 -30 35 -71 80 -90 101 -36 40 -44 49 -145 164
-33 38 -71 81 -85 96 -24 26 -128 143 -160 180 -8 9 -40 45 -70 80 -30 35 -66
75 -80 90 -14 15 -52 58 -85 95 -33 37 -67 76 -75 85 -8 9 -40 45 -70 80 -30
34 -71 80 -90 101 -19 21 -57 63 -85 95 -27 31 -55 62 -61 68 -6 6 -45 51 -87
100 -43 48 -83 94 -90 101 -7 7 -35 39 -64 72 -29 33 -65 73 -80 90 -15 17
-50 57 -78 89 -27 32 -69 78 -92 103 -24 24 -43 45 -43 47 0 2 -8 12 -17 22
-10 10 -43 47 -73 81 -58 66 -79 90 -139 156 -33 37 -211 239 -271 308 -14 16
-43 48 -65 72 -22 23 -59 64 -82 91 -22 27 -55 65 -73 84 -18 19 -51 57 -73
84 -23 26 -55 62 -72 80 -16 18 -57 63 -90 100 -33 38 -69 78 -80 90 -11 12
-42 49 -70 81 -27 32 -59 68 -70 79 -11 12 -54 60 -95 106 -41 47 -85 96 -97
108 -12 13 -39 44 -60 69 -21 24 -49 57 -63 72 -92 102 -162 181 -191 216 -19
21 -41 46 -49 55 -8 9 -46 52 -85 95 -38 43 -76 84 -82 91 -7 7 -13 18 -13 24
0 6 -4 8 -10 5 -6 -3 -10 -2 -10 4 0 6 -12 23 -27 39 -16 16 -41 44 -58 63
-33 38 -174 197 -190 215 -10 10 -121 136 -160 180 -106 120 -134 152 -162
182 -17 18 -46 51 -65 73 -18 22 -49 57 -68 78 -19 21 -60 67 -90 101 -30 34
-64 72 -75 84 -11 12 -35 39 -54 61 -56 66 -174 198 -207 233 -18 17 -30 32
-26 32 3 0 -4 8 -14 18 -11 9 -49 51 -84 92 -36 41 -74 84 -85 96 -11 11 -49
54 -85 94 -36 40 -71 79 -78 87 -7 7 -11 13 -9 13 3 0 -12 17 -32 38 -20 20
-58 63 -86 94 -86 97 -159 179 -180 202 -11 12 -45 51 -75 86 -30 35 -64 74
-75 86 -11 12 -47 53 -80 90 -33 37 -71 79 -84 93 -13 14 -46 53 -75 85 -28
33 -59 66 -68 75 -10 8 -18 21 -18 28 0 7 -6 13 -12 13 -7 0 -28 20 -45 43
-34 44 -74 89 -149 169 -24 26 -44 49 -44 51 0 3 -19 25 -42 50 -24 25 -63 69
-88 98 -25 29 -61 69 -80 90 -19 21 -66 73 -105 115 -62 68 -84 85 -135 102
-8 3 -106 6 -217 7 -110 2 -206 6 -212 9 -6 4 -11 4 -11 -1 0 -10 -52 -9 -68
1 -7 4 -12 4 -12 -1 0 -10 -374 -8 -389 1 -6 4 -11 4 -11 -1 0 -10 -52 -9 -68
1 -7 4 -12 4 -12 -1 0 -10 -373 -8 -389 1 -6 4 -11 4 -11 -1 0 -10 -52 -9 -68
1 -7 4 -12 4 -12 -1 0 -10 -374 -8 -389 1 -6 4 -11 4 -11 -1 0 -10 -52 -9 -68
1 -7 4 -12 4 -12 -1 0 -10 -373 -8 -389 1 -6 4 -11 4 -11 -1 0 -10 -52 -9 -68
1 -7 4 -12 4 -12 -1 0 -10 -374 -8 -389 1 -6 4 -11 4 -11 -1 0 -10 -52 -9 -68
1 -7 4 -12 4 -12 -1 0 -10 -373 -8 -389 1 -6 4 -11 4 -11 -1 0 -10 -52 -9 -68
1 -7 4 -12 4 -12 -1 0 -10 -374 -8 -389 1 -6 4 -11 4 -11 -1 0 -10 -52 -9 -68
1 -7 4 -12 4 -12 -1z m381 -590 c13 -16 12 -17 -3 -4 -17 13 -22 21 -14 21 2
0 10 -8 17 -17z"/>
</g>
</svg>
